<svg xmlns="http://www.w3.org/2000/svg" baseProfile="tiny-ps" version="1.2" viewBox="0 0 800 200"><style>.shp1{fill:#74acdf}</style><path fill="#f0f0f0" d="M66.98 139c-30.42 0-55.02-24.54-55.02-54.91 0-30.36 24.6-54.9 55.02-54.9 30.43 0 55.02 24.54 55.02 54.9C122 114.46 97.41 139 66.98 139z"/><path d="M66.98 29.19c-21.81 0-40.66 12.67-49.56 31.03h99.12c-8.9-18.36-27.75-31.03-49.56-31.03zM66.98 139c21.81 0 40.66-12.67 49.56-31.03H17.42C26.32 126.33 45.17 139 66.98 139z" class="shp1"/><path fill="#ffda44" d="M83.43 84.09l-6.72 3.16 3.57 6.49-7.29-1.39-.93 7.35-5.08-5.41-5.08 5.41-.92-7.35-7.3 1.39 3.58-6.49-6.72-3.16 6.72-3.15-3.58-6.49 7.3 1.39.92-7.36 5.08 5.41 5.08-5.41.93 7.36 7.3-1.39-3.58 6.49 6.72 3.15z"/><path fill="#333" d="M165.41 121.22l28.61-60.46q1.92-3.57 6-3.56 2.04 0 3.6 1.08 1.68 1.08 2.4 2.48l28.51 60.5q.6 1.3.6 2.27 0 2.05-1.8 4-1.68 1.83-4.68 1.83-4.44 0-6-3.57l-7.43-15.99-30.36-.02q-1.92 4-3.84 7.99-1.81 4-3.61 7.99-.96 1.84-2.52 2.7-1.56.86-3.48.86-3 0-4.8-1.84-1.68-1.94-1.68-4 0-.54.12-1.18.12-.65.36-1.08zm44.18-23.3L200 77.93q-1.32 2.59-2.52 5.08-1.08 2.37-2.28 4.75-1.2 2.37-2.41 4.86-1.2 2.48-2.52 5.29l19.32.01zm32.98 25.51l.04-59.83q.01-2.49 1.93-4.21 1.92-1.73 4.68-1.73l22.68.02q6 0 11.28 2.06 5.4 2.05 9.35 5.62 3.96 3.46 6.24 8.21 2.27 4.65 2.27 10.05 0 7.23-3.61 13.06-3.6 5.73-10.08 9.07 3.11 3.46 6.47 7.02 3.48 3.57 6.6 6.81 1.55 1.73 1.55 3.89 0 2.48-1.92 4.32-1.92 1.73-4.68 1.72-2.76 0-4.92-1.94l-15.35-16.54v.11q-.72-.65-1.56-1.08-.72-.43-1.56-.43l-16.32-.02-.01 13.83q0 2.48-1.92 4.21t-4.56 1.72q-2.76 0-4.68-1.73t-1.92-4.21zm29.32-53.98l-16.2-.01-.02 28.29 16.2.02q3.24 0 6.12-1.08 3-1.08 5.16-3.02 2.28-1.94 3.49-4.53 1.32-2.59 1.32-5.51t-1.32-5.51q-1.19-2.59-3.35-4.43-2.16-1.95-5.16-3.03-2.88-1.19-6.24-1.19zm38.26 35.56l.01-23.33q.01-5.4 2.29-10.15 2.4-4.86 6.36-8.42 3.97-3.56 9.25-5.61 5.4-2.05 11.4-2.04 4.56 0 8.76 1.19T355.9 60q3.6 2.17 6.23 5.19 2.76 3.03 4.44 6.7.24.54.24 1.19.12.54.12 1.19 0 2.16-1.69 3.99-1.68 1.84-4.8 1.84-1.68-.01-3.36-.87-1.68-.87-2.51-2.59-1.92-4.11-6-6.71-3.96-2.59-9.12-2.59-3.36-.01-6.36 1.18-2.88 1.08-5.04 3.02t-3.48 4.64q-1.21 2.59-1.21 5.51l-.01 23.33q-.01 2.91 1.19 5.61 1.32 2.6 3.48 4.54 2.28 1.95 5.16 3.14 3 1.08 6.24 1.08 3.36.01 6.24-1.07 3-1.19 5.16-3.13t3.36-4.54q1.32-2.69 1.33-5.61v-2.92h-6.48q-2.76 0-4.68-1.73-1.8-1.73-1.8-4.22 0-2.37 1.8-4.1 1.93-1.72 4.69-1.72l13.08.01q2.76 0 4.67 1.73 1.92 1.62 1.92 4.1v8.86q-.01 5.4-2.41 10.15-2.28 4.75-6.25 8.31-3.96 3.56-9.36 5.72-5.28 2.05-11.28 2.04-6 0-11.4-2.06-5.28-2.16-9.24-5.73-3.95-3.56-6.35-8.32-2.28-4.75-2.27-10.15zm67.54 18.08l.04-59.4q.01-2.48 1.93-4.21t4.68-1.72l45.36.03q2.76 0 4.56 1.73 1.92 1.73 1.91 4.21 0 2.38-1.92 4.1-1.8 1.73-4.56 1.73l-38.88-.03-.01 19.01 24 .02q2.76 0 4.56 1.73 1.91 1.62 1.91 4.1 0 2.49-1.92 4.21-1.8 1.73-4.56 1.73l-24-.02-.01 16.96 38.88.03q2.76 0 4.56 1.73 1.91 1.62 1.91 4.1 0 2.49-1.92 4.21-1.8 1.73-4.56 1.73l-45.36-.03q-2.76-.01-4.68-1.74-1.92-1.72-1.92-4.21zm67.68.48l.03-39.96q0-5.4 2.29-10.15 2.28-4.75 6.24-8.31 3.97-3.56 9.25-5.61 5.4-2.16 11.4-2.15 6 0 11.28 2.16 5.4 2.06 9.35 5.63 3.96 3.56 6.24 8.32 2.39 4.75 2.39 10.15l-.03 39.96q0 2.48-1.92 4.21-1.8 1.73-4.56 1.73-2.64-.01-4.68-1.74-1.92-1.72-1.92-4.21l.03-39.96q0-2.91-1.32-5.51-1.19-2.7-3.47-4.64-2.16-1.95-5.16-3.03-2.88-1.19-6.24-1.19-3.36-.01-6.36 1.18-2.88 1.08-5.04 3.02t-3.49 4.64q-1.2 2.59-1.2 5.51l-.03 39.96q0 2.48-1.92 4.21-1.8 1.73-4.56 1.72-2.76 0-4.68-1.73t-1.92-4.21zm80.92-53.94l-16.08-.02q-2.76 0-4.68-1.62-1.8-1.73-1.8-4.21.01-2.49 1.81-4.21 1.92-1.73 4.68-1.73l45.36.03q2.76.01 4.68 1.74 1.92 1.72 1.91 4.21 0 2.37-1.92 4.1-1.92 1.73-4.68 1.73l-16.08-.02-.04 54q0 2.49-1.92 4.22-1.92 1.72-4.68 1.72-2.64 0-4.68-1.73-1.92-1.73-1.92-4.21l.04-54zm43.16 54.03l.04-59.84q.01-2.48 1.93-4.21 1.92-1.72 4.68-1.72 2.64 0 4.56 1.73 2.04 1.73 2.03 4.21l-.04 59.83q0 2.49-1.92 4.22-1.92 1.72-4.68 1.72-2.64 0-4.68-1.73-1.92-1.73-1.92-4.21zm22.68.01l.03-39.96q0-5.4 2.29-10.15 2.28-4.75 6.24-8.31 3.97-3.56 9.25-5.61 5.4-2.16 11.4-2.15 6 0 11.28 2.17 5.4 2.05 9.35 5.62 3.96 3.56 6.24 8.32 2.39 4.75 2.39 10.15l-.03 39.96q0 2.49-1.92 4.21-1.8 1.73-4.56 1.73-2.64 0-4.68-1.73-1.92-1.73-1.92-4.22l.03-39.96q0-2.91-1.32-5.51-1.19-2.7-3.47-4.64-2.16-1.95-5.16-3.03-2.88-1.19-6.24-1.19-3.36 0-6.36 1.18-2.88 1.08-5.04 3.02t-3.49 4.64q-1.2 2.59-1.2 5.51l-.03 39.96q0 2.48-1.92 4.21-1.8 1.73-4.56 1.73-2.76-.01-4.68-1.74-1.92-1.72-1.92-4.21zm66.98-18.42l.01-23.33q.01-5.4 2.29-10.15 2.4-4.86 6.36-8.42 3.97-3.56 9.25-5.61 5.4-2.05 11.4-2.04 6 0 11.28 2.06 5.4 2.05 9.35 5.62 3.96 3.57 6.24 8.43 2.4 4.75 2.39 10.15l-.01 23.33q-.01 5.4-2.41 10.15-2.28 4.75-6.25 8.31-3.96 3.56-9.36 5.72-5.28 2.05-11.28 2.04-6 0-11.4-2.06-5.28-2.16-9.24-5.73-3.95-3.56-6.35-8.32-2.28-4.75-2.27-10.15zm13.21-23.32l-.01 23.33q-.01 2.91 1.19 5.62 1.32 2.59 3.48 4.53 2.28 1.95 5.16 3.14 3 1.08 6.24 1.08 3.36.01 6.24-1.07 3-1.19 5.16-3.13t3.36-4.53q1.32-2.7 1.33-5.62l.01-23.33q0-2.91-1.31-5.51-1.2-2.7-3.48-4.64-2.16-1.95-5.16-3.03-2.88-1.19-6.12-1.19-3.36 0-6.36 1.18-2.88 1.08-5.04 3.02t-3.48 4.64q-1.21 2.59-1.21 5.51z" aria-label="ARGENTINO"/><path fill="#333" fill-rule="evenodd" d="M67 17c37 0 67 29.75 67 66.45 0 22.89-11.7 43.05-29.48 54.98-2.96 2-6.81 4.81-10.27 7.75-3.8 3.24-8.34 9.87-10.72 14.24l-6.57 12.05c-2.38 4.37-6.8 11.49-11.32 11.53-4.51.04-9.15-6.95-11.71-11.21l-9.76-16.28c-2.56-4.26-7.29-10.77-10.96-14.15-3.4-3.13-7.11-6.25-9.84-8.58C9.07 121.61 0 103.6 0 83.45 0 46.75 30 17 67 17zm55 66.76c0-30.13-24.62-54.55-55-54.55S12 53.63 12 83.76c0 30.12 24.62 54.54 55 54.54s55-24.42 55-54.54z"/></svg>